<svg width="256" height="256" viewBox="0 0 256 256" fill="none" xmlns="http://www.w3.org/2000/svg">
<path d="M212.32 199.472L134.274 140.637C125.509 134.03 113.444 133.966 104.61 140.481C91.7656 149.954 91.0751 168.914 103.196 179.296L177.428 242.876C185.699 249.959 197.338 251.575 207.225 247.012C226.347 238.186 229.138 212.15 212.32 199.472Z" fill="white"/>
<path d="M215.056 54.5308L36.4592 180.107C32.2783 183.047 26.7076 183.067 22.5053 180.158C16.0892 175.716 15.4392 166.474 21.1704 161.177L181.514 13.0009C189.389 5.72338 200.849 3.85146 210.63 8.24486C229.548 16.742 232.021 42.6024 215.056 54.5308Z" fill="white"/>
<path d="M58.6413 86.8337L38.4998 72.3888C32.0588 67.7694 23.2834 68.2003 17.3258 73.4284C9.68606 80.1326 9.57549 91.991 17.0889 98.8366L35.4105 115.53C42.5247 122.011 53.4212 121.953 60.4651 115.395C69.0143 107.435 68.1334 93.6411 58.6413 86.8337Z" fill="white"/>
</svg>
